<?xml version="1.0" encoding="utf-8"?>
<!-- Generator: Adobe Illustrator 18.1.0, SVG Export Plug-In . SVG Version: 6.00 Build 0)  -->
<!DOCTYPE svg PUBLIC "-//W3C//DTD SVG 1.1//EN" "http://www.w3.org/Graphics/SVG/1.1/DTD/svg11.dtd">
<svg version="1.1" id="Layer_1" xmlns="http://www.w3.org/2000/svg" xmlns:xlink="http://www.w3.org/1999/xlink" x="0px" y="0px"
	 viewBox="0 0 155.1 51.6" enable-background="new 0 0 155.1 51.6" xml:space="preserve">
<g id="Extraco">
	<g>
		<g>
			<path fill="#009966" d="M126.7,10.4c-1.9-1-3.3-1.5-5.7-1.5c-4.3,0-7.7,2.6-7.7,7.2c0,4.2,3.9,7.1,8.2,7.1c2.3,0,4.2-0.5,5.9-1.3
				l-0.8,3.4c-1.9,0.5-4,0.8-6,0.8c-7,0-12.3-3.7-12.3-10c0-6.4,5.3-10.1,12.3-10.1c2.2,0,4.1,0.3,5.8,1.1L126.7,10.4z"/>
		</g>
		<g>
			<path fill="#009966" d="M129.1,16.1c0-6.4,5.3-10.1,12.3-10.1c7,0,12.3,3.7,12.3,10.1c0,6.3-5.3,10-12.3,10
				C134.5,26.1,129.1,22.5,129.1,16.1z M148.6,16.1c0-4-2.1-7.5-7.2-7.5c-5.1,0-7.2,3.5-7.2,7.5c0,3.9,2.1,7.4,7.2,7.4
				C146.5,23.5,148.6,20,148.6,16.1z"/>
		</g>
	</g>
	<g>
		<path fill="#003976" d="M0,0h19.9v4.8H7.5v5.3h11.7V15H7.5v5.8h12.8v4.9H0V0z"/>
	</g>
	<g>
		<path fill="#003976" d="M83.6,11.8c-0.8-0.2-1.8-0.2-2.7-0.2c-3.4,0-5.3,2.3-5.3,6v8.1h-7.3V6.5H75V10h0c1.3-2.4,3.1-4,6.2-4
			c0.9,0,1.6,0.1,2.3,0.2V11.8z"/>
	</g>
	<g>
		<path fill="#003976" d="M99.1,25.7c-0.1-1-0.2-2-0.2-3h-0.1c-1.7,2.4-3.7,3.5-6.7,3.5c-4.2,0-7.9-1.6-7.9-5.8
			c0-5.9,7-6.8,10.9-6.8c1.2,0,2.5,0.1,3.4,0.3c0-2.6-2.2-3.3-4.8-3.3c-2.3,0-4.7,0.4-6.7,1.5V7.4c2.6-0.9,5.2-1.4,8.3-1.4
			c5.4,0,10.1,2.1,10.1,7.9v7.1c0,1.5,0.1,3,0.4,4.5H99.1z M94,21.7c2.7,0,4.5-2.3,4.5-4.5c-0.9,0-2-0.1-3.1-0.1
			c-2.4,0-4.4,0.7-4.4,2.5C91,20.9,92.3,21.7,94,21.7z"/>
	</g>
	<g>
		<path fill="#003976" d="M48.3,6.5h4.3V2.2h7.1v4.3h5.1v4.6h-5.1v7.1c0,2.3,0.6,3.5,2.9,3.5c0.7,0,1.5-0.1,2.2-0.2l0.2,4.3
			c-1.3,0.1-2.7,0.4-4.6,0.4c-6.5,0-8.1-2.6-8.1-7.2v-7.8h-4.2V6.5z"/>
	</g>
	<g>
		<polygon fill="#003976" points="48.7,25.7 39,15.9 48.5,6.5 39.8,6.5 34.9,11.7 30.1,6.5 21.4,6.5 30.8,15.9 21.1,25.7 29.8,25.7 
			34.9,20.2 40,25.7 		"/>
	</g>
</g>
<g id="Banks_x2B_TM">
	<g id="TM">
		<g>
			<path fill="#003976" d="M71.4,48.7c0-1.2,0.9-2.2,2.1-2.2c1.1,0,2.1,0.9,2.1,2.2c0,1.2-0.9,2.2-2.1,2.2
				C72.3,50.9,71.4,49.9,71.4,48.7z M73.5,51.3c1.4,0,2.6-1.1,2.6-2.6c0-1.5-1.2-2.6-2.6-2.6c-1.4,0-2.6,1.1-2.6,2.6
				C70.9,50.2,72.1,51.3,73.5,51.3z M72.9,48.9h0.5l0.8,1.3h0.5l-0.8-1.3c0.4,0,0.8-0.3,0.8-0.8c0-0.6-0.3-0.8-1-0.8h-1.1v3h0.4
				V48.9z M72.9,48.5v-0.9h0.6c0.3,0,0.6,0.1,0.6,0.4c0,0.4-0.3,0.5-0.7,0.5H72.9z"/>
		</g>
	</g>
	<g id="Banks">
		<path fill="#003976" d="M0,31.9h5.1c3.5,0,6.7,1,6.7,4.8c0,2.5-1.3,3.9-3.9,4.4v0.1c2.7,0.4,4.5,2,4.5,4.6c0,4.2-3.8,5.5-8.2,5.5
			H0V31.9z M2.1,49.6h2.2c2.8,0,6-0.7,6-3.8c0-3.4-3.3-3.8-6.4-3.8H2.1V49.6z M2.2,40.3h2.3c2.2,0,5.2-0.5,5.2-3.6
			c0-2.8-2.8-3.2-4.6-3.2H2.2V40.3z"/>
		<path fill="#003976" d="M24.6,49L24.6,49c-0.9,1.7-3.1,2.6-5,2.6c-4.4,0-5.1-2.7-5.1-4c0-4.7,5.5-5,9.6-5h0.4v-0.7
			c0-2.4-0.9-3.6-3.5-3.6c-1.6,0-3.1,0.3-4.6,1.2v-1.7c1.2-0.5,3.2-1,4.6-1c3.8,0,5.5,1.6,5.5,5.3v6.2c0,1.1,0,2,0.1,3h-1.9V49z
			 M24.4,44.1h-0.5c-3.3,0-7.3,0.3-7.3,3.4c0,1.9,1.5,2.5,3.2,2.5c4.5,0,4.6-3.6,4.6-5.1V44.1z"/>
		<path fill="#003976" d="M30,40.4c0-1.1,0-2.2-0.1-3.3h1.9v2.5h0.1c0.6-1.3,1.8-2.8,5-2.8c3.8,0,5.3,2.3,5.3,5.4v9h-1.9v-8.6
			c0-2.7-1-4.4-3.7-4.4c-3.5,0-4.6,2.8-4.6,5.2v7.8H30V40.4z"/>
		<path fill="#003976" d="M45.7,30.5h1.9v12.4l6.9-5.8H57l-7.6,6.3l8.5,7.9h-2.7L47.6,44v7.3h-1.9V30.5z"/>
		<path fill="#003976" d="M59.1,49.2c1.2,0.5,2.6,0.9,4.1,0.9c1.8,0,3.4-0.9,3.4-2.5c0-3.3-7.5-2.8-7.5-6.9c0-2.8,2.5-3.8,5.1-3.8
			c0.8,0,2.5,0.2,3.8,0.6l-0.2,1.5c-1-0.4-2.4-0.7-3.4-0.7c-2,0-3.3,0.6-3.3,2.4c0,2.6,7.6,2.3,7.6,6.9c0,3-3.1,4-5.4,4
			c-1.5,0-3-0.2-4.4-0.7L59.1,49.2z"/>
	</g>
</g>
</svg>
