<?xml version="1.0" encoding="utf-8"?>
<!-- Generator: Adobe Illustrator 18.1.0, SVG Export Plug-In . SVG Version: 6.00 Build 0)  -->
<!DOCTYPE svg PUBLIC "-//W3C//DTD SVG 1.1//EN" "http://www.w3.org/Graphics/SVG/1.1/DTD/svg11.dtd">
<svg version="1.1" id="Layer_1" xmlns="http://www.w3.org/2000/svg" xmlns:xlink="http://www.w3.org/1999/xlink" x="0px" y="0px"
	 viewBox="125 -56.8 282.8 144.8" enable-background="new 125 -56.8 282.8 144.8" xml:space="preserve">
<g id="Bird_1_">
	<g>
		<path fill="#F5F5F5" d="M278.9,25.1L147.7-4.2c0,0-17.5,19.6,13.2,21.9l117,9C278.2,26.1,278.6,25.6,278.9,25.1"/>
	</g>
	<g>
		<path fill="#F5F5F5" d="M289.1,18.4L192.9-34c0,0-24.3,12.6,0.9,22.2l94,31.2C288.2,19.1,288.7,18.7,289.1,18.4"/>
	</g>
	<g>
		<path fill="#F5F5F5" d="M303,15.4l-51.8-66.8c0,0-24.5,5.7-10,18l60.1,49.2C301.9,15.7,302.5,15.6,303,15.4"/>
	</g>
	<g>
		<path fill="#F5F5F5" d="M313.1,15.3c0.5-0.1,1-0.2,1.6-0.2l-0.1-71.9c0,0-23.9,0.7-19,16.8L313.1,15.3z"/>
	</g>
	<g>
		<path fill="#F5F5F5" d="M324.6,15.9l51.5-67c0,0-24-7.7-28.5,5.8l-24.6,61C323.6,15.7,324,15.8,324.6,15.9"/>
	</g>
	<g>
		<path fill="#F5F5F5" d="M384.5,52.2c4.6-1.1,8.8-1.2,12.6-1.3c3.8-0.1,10.5,0.6,10.7,0.6c-3.6-7.4-6.2-12.5-11.3-14.5
			c-2.2-1-10.5-1.6-11.9-1.7c-4.9-4.1-9-4.8-11-4.9s-18.5,0-18.5,0H126.8c-0.8,2.6-1.4,5.2-1.7,7.7c-0.1,1.8-0.1,4.1,1.2,6.5
			c1.4,2.4,3.8,3.9,5.8,5s4.5,2,7.8,2.3c3.2,0.3,9.8,0.5,12.6,0.4c2.8-0.1,18.2-2.1,18.2-2.1l27.7-3.7l19.9-2.7
			c0,0,18.8-2.5,21.3-2.9c8.4-1.1,18.1-2.4,18.1-2.4s16.9-2.2,17.7-2.3c3.5,8.6,9.6,11.9,21.2,15.5c-0.4,0.6-21.5,28.3-22.3,29.2
			c-0.9,1-2.5,4-0.6,5.9c1.9,1.9,5.4,0.6,7.2,0.1s18.3-5.3,18.3-5.3S383,52.7,384.5,52.2"/>
	</g>
</g>
</svg>
