<!-- Generator: Adobe Illustrator 18.1.0, SVG Export Plug-In  -->
<svg version="1.1"
	 xmlns="http://www.w3.org/2000/svg" xmlns:xlink="http://www.w3.org/1999/xlink" xmlns:a="http://ns.adobe.com/AdobeSVGViewerExtensions/3.0/"
	 x="0px" y="0px" width="282.8px" height="144.8px" viewBox="0 0 282.8 144.8" enable-background="new 0 0 282.8 144.8"
	 xml:space="preserve">
<defs>
</defs>
<g id="Bird_1_">
	<g>
		<path fill="#C7C8CA" d="M153.9,81.9L22.7,52.6c0,0-17.5,19.6,13.2,21.9l117,9C153.2,82.9,153.6,82.4,153.9,81.9"/>
	</g>
	<g>
		<path fill="#C7C8CA" d="M164.1,75.2L67.9,22.8c0,0-24.3,12.6,0.9,22.2l94,31.2C163.2,75.9,163.7,75.5,164.1,75.2"/>
	</g>
	<g>
		<path fill="#C7C8CA" d="M178,72.2L126.2,5.4c0,0-24.5,5.7-10,18l60.1,49.2C176.9,72.5,177.5,72.4,178,72.2"/>
	</g>
	<g>
		<path fill="#C7C8CA" d="M188.1,72.1c0.5-0.1,1-0.2,1.6-0.2L189.6,0c0,0-23.9,0.7-19,16.8L188.1,72.1z"/>
	</g>
	<g>
		<path fill="#C7C8CA" d="M199.6,72.7l51.5-67c0,0-24-7.7-28.5,5.8l-24.6,61C198.6,72.5,199,72.6,199.6,72.7"/>
	</g>
	<g>
		<path fill="#C7C8CA" d="M259.5,109c4.6-1.1,8.8-1.2,12.6-1.3c3.8-0.1,10.5,0.6,10.7,0.6c-3.6-7.4-6.2-12.5-11.3-14.5
			c-2.2-1-10.5-1.6-11.9-1.7c-4.9-4.1-9-4.8-11-4.9c-2-0.1-18.5,0-18.5,0l-228.3,0c-0.8,2.6-1.4,5.2-1.7,7.7
			c-0.1,1.8-0.1,4.1,1.2,6.5c1.4,2.4,3.8,3.9,5.8,5c2,1.1,4.5,2,7.8,2.3c3.2,0.3,9.8,0.5,12.6,0.4c2.8-0.1,18.2-2.1,18.2-2.1
			l27.7-3.7l19.9-2.7c0,0,18.8-2.5,21.3-2.9c8.4-1.1,18.1-2.4,18.1-2.4s16.9-2.2,17.7-2.3c3.5,8.6,9.6,11.9,21.2,15.5
			c-0.4,0.6-21.5,28.3-22.3,29.2c-0.9,1-2.5,4-0.6,5.9c1.9,1.9,5.4,0.6,7.2,0.1c1.8-0.5,18.3-5.3,18.3-5.3S258,109.5,259.5,109"/>
	</g>
</g>
</svg>
